# xmcd CD database file
#
# Track frame offsets:
#	150
#	19505
#	36133
#	55435
#	72900
#	89718
#	109181
#	126403
#	143166
#	160227
#	176532
#	193052
#	207684
#	220264
#	249850
#	266776
#	278951
#	290317
#	302923
#	315206
#
# Disc length: 4335 seconds
#
# Revision: 0
# Processed by: cddbd v1.4PL0 Copyright (c) Steve Scherf et al.
# Submitted via: CDex 1.40Release
#
DISCID=3510ed14
DTITLE=Gian e Giovani - As 20 mais
DYEAR=1900
DGENRE=Country
TTITLE0=O grande amor da minha vida
TTITLE1=1000 corações
TTITLE2=Eu busco uma estrela
TTITLE3=Olha amor
TTITLE4=Nem dormindo consigo te esquecer
TTITLE5=Quem será
TTITLE6=Te amo menina
TTITLE7=Viagem louca
TTITLE8=O que é que a gente não faz por amor
TTITLE9=Roupa de lua de mel
TTITLE10=Caçador de corações
TTITLE11=Amante anônimo
TTITLE12=Espuma da cerveja
TTITLE13=Você em minha vida
TTITLE14=Por telefone
TTITLE15=Meu coração só quer você
TTITLE16=Viola caipira
TTITLE17=Sai dessa coração
TTITLE18=Meto o pé na porta
TTITLE19=Caí no laço
EXTD=ID3G: 2
EXTT0=
EXTT1=
EXTT2=
EXTT3=
EXTT4=
EXTT5=
EXTT6=
EXTT7=
EXTT8=
EXTT9=
EXTT10=
EXTT11=
EXTT12=
EXTT13=
EXTT14=
EXTT15=
EXTT16=
EXTT17=
EXTT18=
EXTT19=
PLAYORDER=
